<svg xmlns="http://www.w3.org/2000/svg" viewBox="0 0 1600 760" role="img" aria-labelledby="t d"><title id="t">Pequenas ações, grandes conexões</title><desc id="d">Ilustração abstrata de mãos e vínculo afetivo.</desc><defs><linearGradient id="g" x1="0" y1="0" x2="1" y2="1"><stop stop-color="#fff9fb"/><stop offset=".5" stop-color="#f6eef9"/><stop offset="1" stop-color="#effbfa"/></linearGradient></defs><rect width="1600" height="760" fill="url(#g)"/><circle cx="1320" cy="200" r="290" fill="#f7aac7" opacity=".40"/><circle cx="1180" cy="590" r="240" fill="#ceb0de" opacity=".43"/><circle cx="1510" cy="600" r="175" fill="#75d2cd" opacity=".38"/><g transform="translate(1010 160)" fill="none" stroke-linecap="round" stroke-linejoin="round"><path d="M75 110c80 22 130 93 138 184 4 44-8 87-39 126l-72 89" stroke="#7a3fa0" stroke-width="36"/><path d="M480 108c-83 20-135 90-145 181-5 46 6 91 38 132l74 90" stroke="#f5488b" stroke-width="36"/><path d="M212 294c38-45 84-48 120-9 36-39 82-36 120 9 42 50-2 113-120 194-118-81-162-144-120-194Z" fill="#fff" stroke="#3cb7b3" stroke-width="22"/></g><path d="M780 650c140-110 290-115 450-30" fill="none" stroke="#7a3fa0" stroke-width="5" opacity=".18"/></svg>